<svg width="146" height="32" viewBox="0 0 146 32" fill="none" xmlns="http://www.w3.org/2000/svg">
    <path d="M1.39786 13.5639C3.01337 10.9902 5.28019 9.73579 8.13651 9.51792C7.9232 8.63268 7.72709 7.81312 7.52799 6.99442C7.37466 6.36388 7.20881 5.73676 7.06369 5.10401C6.50754 2.67898 7.98334 0.34309 10.2671 0.0125905C10.6135 -0.037543 10.8128 0.0513595 10.7828 0.474005C10.7757 0.57384 10.782 0.674782 10.7819 0.775214C10.7814 1.53647 10.7814 1.53647 10.1285 1.73295C8.99351 2.0745 8.30415 3.23863 8.48712 4.50481C8.66613 5.74358 9.72581 6.61429 10.9357 6.51674C12.0232 6.42905 12.9158 5.39151 12.9592 4.1648C13.0204 2.43121 14.1095 1.2413 15.6132 1.26514C17.1011 1.28874 18.1833 2.54113 18.1911 4.25115C18.1936 4.78677 18.1704 5.32366 18.1972 5.85769C18.2197 6.305 18.0455 6.44321 17.6563 6.43862C16.4245 6.4241 15.1926 6.43326 13.8712 6.43326C14.0189 7.04923 14.1532 7.62102 14.2932 8.19116C14.9554 10.8888 15.6469 13.5785 16.2764 16.285C17.3512 20.9056 15.0715 25.4523 10.9226 27.0391C10.7918 27.0892 10.6586 27.1319 10.5287 27.1844C9.99166 27.401 9.84548 27.6585 9.97385 28.2604C10.0988 28.8466 10.2701 29.421 10.4003 30.006C10.4555 30.2544 10.5844 30.3265 10.7954 30.3249C11.2426 30.3216 11.6902 30.3146 12.1369 30.3312C12.795 30.3558 13.3358 30.8391 13.4921 31.489C13.5636 31.7867 13.4967 31.9444 13.2039 31.9579C13.1115 31.9621 13.0189 31.9644 12.9265 31.9644C10.1199 31.9648 7.31332 31.9668 4.50676 31.9611C4.30131 31.9607 4.02608 32.0606 3.91339 31.815C3.79641 31.5601 3.93858 31.2897 4.07093 31.0636C4.34633 30.5932 4.75041 30.3429 5.26528 30.3285C5.66292 30.3175 6.06104 30.3263 6.51869 30.3263C6.37494 29.3932 6.12983 28.5545 5.89674 27.7145C5.81583 27.4228 5.55356 27.4795 5.34267 27.4791C3.75433 27.4766 2.16581 27.4625 0.577787 27.4869C0.130541 27.4938 -0.00287361 27.3349 4.66992e-05 26.8555C0.0172806 24.0268 -0.0144476 21.1977 0.0178624 18.3692C0.0375591 16.645 0.489756 15.0394 1.39786 13.5639ZM2.88963 23.8491C2.89518 24.1207 2.87031 24.4058 3.25131 24.3961C5.20677 24.346 7.169 24.5374 9.11752 24.2935C11.5784 23.9854 13.6324 21.4788 13.6949 18.7936C13.7774 15.2507 11.2312 12.5356 7.96187 12.6804C5.27936 12.7991 2.99563 15.2346 2.91431 18.1333C2.86178 20.0055 2.89387 21.8806 2.88963 23.8491ZM15.5472 4.79545C15.8084 4.79527 16.0697 4.7957 16.3309 4.79468C16.4778 4.79412 16.6231 4.7665 16.6449 4.57678C16.6987 4.10346 16.7019 3.63151 16.3556 3.2672C16.0139 2.90779 15.5922 2.82784 15.1581 3.00114C14.7281 3.17274 14.5158 3.55193 14.4924 4.04619C14.4816 4.27422 14.4906 4.50334 14.4906 4.79495C14.8229 4.79495 15.1425 4.79495 15.5472 4.79545ZM8.78309 29.7206C8.63421 29.1234 8.48577 28.5262 8.33615 27.9292C8.30004 27.7851 8.28052 27.6062 8.11039 27.5903C7.92144 27.5728 7.8013 27.7151 7.71322 27.8831C7.60666 28.0864 7.61929 28.3036 7.66823 28.5179C7.76085 28.9232 7.86 29.3269 7.96102 29.7298C8.12452 30.3822 8.22703 30.4396 8.83814 30.2335C8.91357 30.0795 8.82629 29.9423 8.78309 29.7206Z" fill="#0B6468"/>
    <path d="M11.652 4.35751C11.3944 4.97132 10.9883 5.24228 10.5298 5.1361C10.0978 5.03605 9.7588 4.62347 9.7259 4.15777C9.69231 3.68215 9.99846 3.21499 10.4462 3.05873C11.1301 2.82 11.7384 3.44996 11.652 4.35751Z" fill="#0B6468"/>
    <path d="M12.0046 17.4487C12.0198 17.5093 12.0341 17.5676 12.0537 17.6649C12.4999 20.458 10.6993 22.7298 8.19356 22.7378C7.77256 22.7392 7.34922 22.738 6.92479 22.7367C6.16082 22.7344 5.39325 22.7321 4.62927 22.7451C4.47135 22.7478 4.42837 22.7232 4.42271 22.7194C4.41771 22.7121 4.39052 22.6636 4.396 22.4958C4.4152 21.907 4.40773 21.3162 4.40035 20.7335C4.39841 20.5804 4.39648 20.4278 4.39504 20.2759C4.3881 19.542 4.39249 18.8196 4.45946 18.1022C4.66031 15.9508 6.13569 14.4512 8.13468 14.2964C9.80844 14.1668 11.5192 15.512 12.0046 17.4487Z" fill="#C5FA58" stroke="#0B6468" stroke-width="0.5"/>
    <path d="M30.5095 18.4566C30.5095 19.6939 30.2756 20.7465 29.8081 21.6144C29.3442 22.4824 28.711 23.1452 27.9083 23.6032C27.1095 24.0575 26.2112 24.2847 25.2135 24.2847C24.2083 24.2847 23.3063 24.0556 22.5074 23.5977C21.7085 23.1397 21.0771 22.4768 20.6133 21.6089C20.1494 20.7409 19.9174 19.6902 19.9174 18.4566C19.9174 17.2193 20.1494 16.1668 20.6133 15.2988C21.0771 14.4309 21.7085 13.7699 22.5074 13.3156C23.3063 12.8576 24.2083 12.6287 25.2135 12.6287C26.2112 12.6287 27.1095 12.8576 27.9083 13.3156C28.711 13.7699 29.3442 14.4309 29.8081 15.2988C30.2756 16.1668 30.5095 17.2193 30.5095 18.4566ZM28.0851 18.4566C28.0851 17.6552 27.9654 16.9793 27.7262 16.4291C27.4905 15.8788 27.1574 15.4614 26.7266 15.177C26.2958 14.8926 25.7915 14.7504 25.2135 14.7504C24.6354 14.7504 24.131 14.8926 23.7002 15.177C23.2695 15.4614 22.9345 15.8788 22.6952 16.4291C22.4596 16.9793 22.3417 17.6552 22.3417 18.4566C22.3417 19.2581 22.4596 19.9339 22.6952 20.4842C22.9345 21.0346 23.2695 21.452 23.7002 21.7363C24.131 22.0207 24.6354 22.1628 25.2135 22.1628C25.7915 22.1628 26.2958 22.0207 26.7266 21.7363C27.1574 21.452 27.4905 21.0346 27.7262 20.4842C27.9654 19.9339 28.0851 19.2581 28.0851 18.4566ZM36.2901 24.1295H32.2807V12.7838H36.3232C37.4609 12.7838 38.4402 13.0108 39.2611 13.4651C40.0822 13.9157 40.7136 14.564 41.1553 15.4097C41.6008 16.2554 41.8236 17.2675 41.8236 18.4456C41.8236 19.6275 41.6008 20.6431 41.1553 21.4926C40.7136 22.3419 40.0785 22.9939 39.2501 23.4481C38.4255 23.9024 37.4388 24.1295 36.2901 24.1295ZM34.6721 22.0742H36.1907C36.8975 22.0742 37.4922 21.9487 37.9745 21.6975C38.4605 21.4426 38.8249 21.0494 39.0679 20.5176C39.3146 19.9819 39.4379 19.2913 39.4379 18.4456C39.4379 17.6072 39.3146 16.9221 39.0679 16.3903C38.8249 15.8585 38.4623 15.467 37.98 15.2158C37.4977 14.9647 36.903 14.839 36.1962 14.839H34.6721V22.0742ZM53.9882 18.4566C53.9882 19.6939 53.7544 20.7465 53.2868 21.6144C52.8229 22.4824 52.1897 23.1452 51.3871 23.6032C50.5882 24.0575 49.69 24.2847 48.6921 24.2847C47.6871 24.2847 46.785 24.0556 45.9862 23.5977C45.1873 23.1397 44.5559 22.4768 44.092 21.6089C43.6281 20.7409 43.3961 19.6902 43.3961 18.4566C43.3961 17.2193 43.6281 16.1668 44.092 15.2988C44.5559 14.4309 45.1873 13.7699 45.9862 13.3156C46.785 12.8576 47.6871 12.6287 48.6921 12.6287C49.69 12.6287 50.5882 12.8576 51.3871 13.3156C52.1897 13.7699 52.8229 14.4309 53.2868 15.2988C53.7544 16.1668 53.9882 17.2193 53.9882 18.4566ZM51.5639 18.4566C51.5639 17.6552 51.4442 16.9793 51.2049 16.4291C50.9692 15.8788 50.6361 15.4614 50.2054 15.177C49.7746 14.8926 49.2702 14.7504 48.6921 14.7504C48.1141 14.7504 47.6098 14.8926 47.179 15.177C46.7482 15.4614 46.4133 15.8788 46.1739 16.4291C45.9382 16.9793 45.8205 17.6552 45.8205 18.4566C45.8205 19.2581 45.9382 19.9339 46.1739 20.4842C46.4133 21.0346 46.7482 21.452 47.179 21.7363C47.6098 22.0207 48.1141 22.1628 48.6921 22.1628C49.2702 22.1628 49.7746 22.0207 50.2054 21.7363C50.6361 21.452 50.9692 21.0346 51.2049 20.4842C51.4442 19.9339 51.5639 19.2581 51.5639 18.4566ZM59.3588 24.1295V12.7838H63.8209C64.6788 12.7838 65.4096 12.9481 66.0134 13.2768C66.6171 13.6019 67.0773 14.0543 67.394 14.6341C67.7143 15.2102 67.8744 15.8751 67.8744 16.6284C67.8744 17.3819 67.7125 18.0467 67.3885 18.6228C67.0644 19.199 66.595 19.6478 65.9802 19.969C65.3691 20.2904 64.6291 20.451 63.7602 20.451H60.9161V18.5286H63.3736C63.8338 18.5286 64.213 18.4492 64.5113 18.2905C64.8132 18.1279 65.0377 17.9045 65.185 17.6201C65.336 17.3321 65.4115 17.0015 65.4115 16.6284C65.4115 16.2517 65.336 15.9231 65.185 15.6424C65.0377 15.3579 64.8132 15.1382 64.5113 14.9832C64.2093 14.8243 63.8264 14.7449 63.3625 14.7449H61.75V24.1295H59.3588ZM70.0711 24.1295H67.5086L71.4129 12.7838H74.4945L78.3933 24.1295H75.8309L72.9979 15.3765H72.9096L70.0711 24.1295ZM69.9108 19.6699H75.9635V21.5424H69.9108V19.6699ZM77.9378 12.7838H80.6162L83.1951 17.6699H83.3055L85.8846 12.7838H88.563L84.4377 20.1187V24.1295H82.0631V20.1187L77.9378 12.7838ZM89.869 12.7838H92.818L95.9327 20.4067H96.0652L99.1799 12.7838H102.129V24.1295H99.8094V16.7448H99.7156L96.7887 24.0741H95.2092L92.2823 16.7171H92.1885V24.1295H89.869V12.7838ZM104.099 24.1295V12.7838H111.72V14.7615H106.49V17.465H111.328V19.4427H106.49V22.1518H111.742V24.1295H104.099ZM123.082 12.7838V24.1295H121.016L116.095 16.9886H116.012V24.1295H113.621V12.7838H115.72L120.602 19.9192H120.701V12.7838H123.082ZM124.626 14.7615V12.7838H133.915V14.7615H130.452V24.1295H128.089V14.7615H124.626ZM141.58 16.0468C141.535 15.5999 141.346 15.2527 141.011 15.0053C140.677 14.7578 140.221 14.6341 139.647 14.6341C139.257 14.6341 138.927 14.6895 138.658 14.8003C138.39 14.9075 138.183 15.057 138.04 15.249C137.9 15.4411 137.83 15.659 137.83 15.9028C137.823 16.1059 137.866 16.2831 137.958 16.4346C138.053 16.586 138.183 16.7171 138.349 16.828C138.515 16.935 138.706 17.0292 138.923 17.1104C139.14 17.188 139.372 17.2545 139.619 17.3099L140.636 17.5536C141.129 17.6644 141.582 17.8122 141.994 17.9968C142.406 18.1816 142.763 18.4086 143.065 18.6783C143.367 18.9478 143.601 19.2655 143.767 19.6312C143.936 19.9967 144.022 20.4159 144.026 20.8886C144.022 21.583 143.846 22.185 143.496 22.6947C143.15 23.2006 142.649 23.594 141.994 23.8747C141.343 24.1516 140.556 24.2902 139.636 24.2902C138.723 24.2902 137.928 24.1498 137.25 23.8692C136.576 23.5884 136.05 23.1729 135.671 22.6227C135.295 22.0687 135.098 21.3835 135.079 20.5674H137.393C137.419 20.9477 137.528 21.2654 137.72 21.5203C137.915 21.7713 138.175 21.9616 138.499 22.0908C138.826 22.2164 139.196 22.2792 139.608 22.2792C140.014 22.2792 140.365 22.2201 140.663 22.1019C140.965 21.9838 141.199 21.8193 141.365 21.6089C141.53 21.3983 141.613 21.1564 141.613 20.8831C141.613 20.6283 141.538 20.414 141.387 20.2405C141.24 20.067 141.023 19.9192 140.735 19.7973C140.452 19.6755 140.104 19.5646 139.691 19.4649L138.46 19.1547C137.506 18.922 136.753 18.5582 136.201 18.0633C135.649 17.5684 135.375 16.9018 135.379 16.0634C135.375 15.3765 135.557 14.7763 135.925 14.2629C136.297 13.7496 136.807 13.3488 137.455 13.0608C138.103 12.7727 138.839 12.6287 139.663 12.6287C140.504 12.6287 141.236 12.7727 141.862 13.0608C142.491 13.3488 142.981 13.7496 143.33 14.2629C143.68 14.7763 143.86 15.371 143.871 16.0468H141.58Z" fill="black"/>
</svg>
    